<svg id="_o_" data-name="—o—" xmlns="http://www.w3.org/2000/svg" width="164" height="14" viewBox="0 0 164 14">
  <metadata><?xpacket begin="﻿" id="W5M0MpCehiHzreSzNTczkc9d"?>
<x:xmpmeta xmlns:x="adobe:ns:meta/" x:xmptk="Adobe XMP Core 5.6-c138 79.159824, 2016/09/14-01:09:01        ">
   <rdf:RDF xmlns:rdf="http://www.w3.org/1999/02/22-rdf-syntax-ns#">
      <rdf:Description rdf:about=""/>
   </rdf:RDF>
</x:xmpmeta>
                                                                                                    
                                                                                                    
                                                                                                    
                                                                                                    
                                                                                                    
                                                                                                    
                                                                                                    
                                                                                                    
                                                                                                    
                                                                                                    
                                                                                                    
                                                                                                    
                                                                                                    
                                                                                                    
                                                                                                    
                                                                                                    
                                                                                                    
                                                                                                    
                                                                                                    
                                                                                                    
                           
<?xpacket end="w"?></metadata>
<defs>
    <style>
      .cls-1 {
        fill: #fff;
        fill-rule: evenodd;
      }
    </style>
  </defs>
  <path id="o_o" data-name="o—o" class="cls-1" d="M4117.5,1861h-50.67a3,3,0,1,1,0-2h50.67a0.5,0.5,0,0,1,.5.5v1A0.5,0.5,0,0,1,4117.5,1861Z" transform="translate(-3954 -1853)"/>
  <path id="_" data-name="/" class="cls-1" d="M4036,1852.99l7.01,7.01-7.01,7.01-7.01-7.01Zm0,3.04,3.97,3.97-3.97,3.97-3.97-3.97Z" transform="translate(-3954 -1853)"/>
  <path id="o_o-2" data-name="o—o" class="cls-1" d="M4008,1863a3.014,3.014,0,0,1-2.83-2H3954.5a0.5,0.5,0,0,1-.5-0.5v-1a0.5,0.5,0,0,1,.5-0.5h50.67A3,3,0,1,1,4008,1863Z" transform="translate(-3954 -1853)"/>
</svg>
