<svg id="icon" xmlns="http://www.w3.org/2000/svg" width="300" height="56" viewBox="0 0 300 56">
  <metadata><?xpacket begin="﻿" id="W5M0MpCehiHzreSzNTczkc9d"?>
<x:xmpmeta xmlns:x="adobe:ns:meta/" x:xmptk="Adobe XMP Core 5.6-c138 79.159824, 2016/09/14-01:09:01        ">
   <rdf:RDF xmlns:rdf="http://www.w3.org/1999/02/22-rdf-syntax-ns#">
      <rdf:Description rdf:about=""/>
   </rdf:RDF>
</x:xmpmeta>
                                                                                                    
                                                                                                    
                                                                                                    
                                                                                                    
                                                                                                    
                                                                                                    
                                                                                                    
                                                                                                    
                                                                                                    
                                                                                                    
                                                                                                    
                                                                                                    
                                                                                                    
                                                                                                    
                                                                                                    
                                                                                                    
                                                                                                    
                                                                                                    
                                                                                                    
                                                                                                    
                           
<?xpacket end="w"?></metadata>
<defs>
    <style>
      .cls-1, .cls-3 {
        fill: #fff;
      }

      .cls-1, .cls-2 {
        fill-rule: evenodd;
      }

      .cls-2 {
        fill: none;
        stroke: #fff;
        stroke-width: 2px;
      }
    </style>
  </defs>
  <path id="o_o" data-name="o—o" class="cls-1" d="M4183,1702a2.99,2.99,0,0,1-2.83-2H3891.83a3,3,0,1,1,0-2h288.34A3,3,0,1,1,4183,1702Z" transform="translate(-3886 -1646)"/>
  <path id="o" class="cls-1" d="M4036,1664a5,5,0,1,1-5,5A5,5,0,0,1,4036,1664Zm0,2a3,3,0,1,1-3,3A3,3,0,0,1,4036,1666Z" transform="translate(-3886 -1646)"/>
  <path class="cls-2" d="M4109,1700v-17" transform="translate(-3886 -1646)"/>
  <path class="cls-2" d="M4117,1700v-8" transform="translate(-3886 -1646)"/>
  <path class="cls-2" d="M3963,1700v-17" transform="translate(-3886 -1646)"/>
  <path class="cls-2" d="M3955,1700v-8" transform="translate(-3886 -1646)"/>
  <path class="cls-2" d="M3947,1700v-4" transform="translate(-3886 -1646)"/>
  <path class="cls-2" d="M4125,1700v-4" transform="translate(-3886 -1646)"/>
  <path id="o-2" data-name="o" class="cls-1" d="M4109,1656a6,6,0,1,1-6,6A6,6,0,0,1,4109,1656Zm0,2a4,4,0,1,1-4,4A4,4,0,0,1,4109,1658Z" transform="translate(-3886 -1646)"/>
  <path id="i" class="cls-1" d="M4016,1649h40v40h-40v-40Zm2,2h36v36h-36v-36Z" transform="translate(-3886 -1646)"/>
  <path id="i-2" data-name="i" class="cls-1" d="M4026,1659h20v20h-20v-20Zm2,2h16v16h-16v-16Z" transform="translate(-3886 -1646)"/>
  <path id="i-3" data-name="i" class="cls-1" d="M4062,1646h20v20h-20v-20Zm2,2h16v16h-16v-16Z" transform="translate(-3886 -1646)"/>
  <path id="i-4" data-name="i" class="cls-1" d="M4062,1672h40v20h-40v-20Zm2,2h36v16h-36v-16Z" transform="translate(-3886 -1646)"/>
  <path id="i-5" data-name="i" class="cls-1" d="M3990,1646h20v20h-20v-20Zm2,2h16v16h-16v-16Z" transform="translate(-3886 -1646)"/>
  <path id="i-6" data-name="i" class="cls-1" d="M3970,1672h40v20h-40v-20Zm2,2h36v16h-36v-16Z" transform="translate(-3886 -1646)"/>
  <rect id="_-" data-name="-" class="cls-3" x="186" y="35" width="20" height="2"/>
  <path id="_" data-name="///" class="cls-2" d="M3978,1680l4,4,4-4,4,4,4-4,4,4,4-4" transform="translate(-3886 -1646)"/>
  <path id="i-7" data-name="i" class="cls-2" d="M3998,1654h4v4h-4v-4Z" transform="translate(-3886 -1646)"/>
  <path id="_2" data-name="—" class="cls-2" d="M3980,1665h-28" transform="translate(-3886 -1646)"/>
  <path id="_3" data-name="|" class="cls-2" d="M3963,1672v-18" transform="translate(-3886 -1646)"/>
  <path id="x" class="cls-1" d="M4075.54,1658.12l-1.42,1.42-2.12-2.13-2.12,2.13-1.42-1.42,2.13-2.12-2.13-2.12,1.42-1.42,2.12,2.13,2.12-2.13,1.42,1.42-2.13,2.12Z" transform="translate(-3886 -1646)"/>
</svg>
